<svg xmlns="http://www.w3.org/2000/svg" viewBox="0 0 511.599 511.599" xml:space="preserve"><g stroke-width="0"/><g stroke-linecap="round" stroke-linejoin="round"/><path style="fill:#434a54" d="M458.302 500.952a10.64 10.64 0 0 1-10.647 10.647H63.953c-5.886 0-10.656-4.762-10.656-10.647V10.663C53.298 4.777 58.068 0 63.953 0h383.701c5.885 0 10.647 4.777 10.647 10.663z"/><path style="fill:#f5f7fa" d="M85.27 31.97h341.05v447.65H85.27z"/><path style="fill:#ffce54" d="M330.401 42.639H181.197L159.878 0h191.85z"/><path style="fill:#f6bb42" d="M277.13 21.327h-42.646c-5.886 0-10.656-4.778-10.656-10.664S228.598 0 234.484 0h42.646c5.87 0 10.648 4.777 10.648 10.663S283 21.327 277.13 21.327"/><path style="fill:#8cc153" d="M209.512 128.446h-.016L171.83 166.12l-15.059-15.051-.008-.016c-4.168-4.169-10.921-4.169-15.082 0-4.161 4.153-4.161 10.913 0 15.066l22.615 22.607c4.161 4.168 10.906 4.168 15.066 0l45.215-45.215h.008c4.161-4.169 4.161-10.913 0-15.066-4.161-4.167-10.912-4.167-15.073.001m0 106.574c0 .016-.008.016-.008.016L171.83 272.71l-15.059-15.066h-.008c-4.168-4.169-10.921-4.169-15.082-.016-4.161 4.168-4.161 10.913 0 15.082l22.615 22.606a10.64 10.64 0 0 0 15.066 0l45.223-45.214c4.161-4.169 4.161-10.914 0-15.082-4.161-4.154-10.912-4.154-15.073 0m0 106.588-.016.016-37.666 37.674-15.059-15.066c-.008 0-.008-.016-.008-.016-4.168-4.152-10.921-4.168-15.082 0s-4.161 10.914 0 15.082l22.615 22.607c4.161 4.153 10.906 4.153 15.066 0l45.223-45.23c4.161-4.152 4.161-10.897 0-15.066s-10.912-4.169-15.073-.001"/><path style="fill:#434a54" d="M266.458 170.538h95.918c5.901 0 10.679-4.777 10.679-10.663s-4.777-10.648-10.679-10.648h-95.918c-5.886 0-10.655 4.763-10.655 10.648s4.77 10.663 10.655 10.663m95.918 85.262h-95.918c-5.886 0-10.655 4.777-10.655 10.663s4.77 10.664 10.655 10.664h95.918c5.901 0 10.679-4.777 10.679-10.664.001-5.886-4.776-10.663-10.679-10.663m0 106.589h-95.918c-5.886 0-10.655 4.777-10.655 10.663s4.77 10.648 10.655 10.648h95.918c5.901 0 10.679-4.763 10.679-10.648s-4.776-10.663-10.679-10.663"/></svg>